<svg width="50" height="30" xmlns="http://www.w3.org/2000/svg">
 <!-- Created with Method Draw - http://github.com/duopixel/Method-Draw/ -->
 <g>
  <title>background</title>
 </g>
 <g>
  <title>Layer 1</title>
  <g id="svg_26">
   <path id="svg_1" fill-rule="evenodd" d="m4.67716,14.81369l0,0c0,-7.10577 5.76742,-12.86614 12.88189,-12.86614l0,0c3.41649,0 6.69305,1.35554 9.10887,3.7684c2.41583,2.41288 3.77302,5.68543 3.77302,9.09774l0,0c0,7.10577 -5.76742,12.86614 -12.88189,12.86614l0,0c-7.11447,0 -12.88189,-5.76037 -12.88189,-12.86614z" fill-opacity="0.8431" fill="#b9b9b9"/>
   <path id="svg_2" fill-rule="evenodd" d="m20.24811,14.81369l0,0c0,-7.10577 5.76742,-12.86614 12.88189,-12.86614l0,0c3.41649,0 6.69304,1.35554 9.10887,3.7684c2.41582,2.41288 3.77302,5.68543 3.77302,9.09774l0,0c0,7.10577 -5.76742,12.86614 -12.88189,12.86614l0,0c-7.11447,0 -12.88189,-5.76037 -12.88189,-12.86614z" fill-opacity="0.3708" fill="#d3d3d3"/>
  </g>
 </g>
</svg>